<?xml version="1.0" encoding="UTF-8" standalone="no"?>
<svg width="32px" height="32px" viewBox="0 0 32 32" version="1.1" xmlns="http://www.w3.org/2000/svg" xmlns:xlink="http://www.w3.org/1999/xlink">
    <!-- Generator: Sketch 40.3 (33839) - http://www.bohemiancoding.com/sketch -->
    <title>145</title>
    <desc>Created with Sketch.</desc>
    <defs></defs>
    <g id="System-Map---v4-release" stroke="none" stroke-width="1" fill="none" fill-rule="evenodd">
        <g id="dashboard_Free_DefaultState" transform="translate(-525.000000, -453.000000)" fill="#FFFFFF">
            <g id="Group-17" transform="translate(-167.000000, 51.000000)">
                <g id="145" transform="translate(692.000000, 402.000000)">
                    <path d="M10,15.0059397 L10,2.99406028 C10,2.44573573 10.4448178,2 10.991155,2 L29.008845,2 C29.5569544,2 30,2.44396878 30,2.99406028 L30,15.0059397 C30,15.5542643 29.5551822,16 29.008845,16 L27,16 C26.4477153,16 26,16.4477153 26,17 L26,20.8046911 L21.7071068,16.2928932 C21.5195704,16.1053568 21.2652165,16 21,16 L10.991155,16 C10.4430456,16 10,15.5560312 10,15.0059397 Z M26.4354858,23.675354 C27.0654507,24.3053189 28,23.8909049 28,23 L28,18 L29.008845,18 C30.6606757,18 32,16.6579119 32,15.0059397 L32,2.99406028 C32,1.3403301 30.6624568,0 29.008845,0 L10.991155,0 C9.3393243,0 8,1.34208812 8,2.99406028 L8,15.0059397 C8,16.6596699 9.33754318,18 10.991155,18 L21.0480178,18 L26.4354858,23.675354 Z" id="Rectangle-726"></path>
                    <path d="M20.629427,25.9984966 L10.8013409,25.9984966 L11.4956774,25.7056278 L5.60403691,31.7051267 C4.98544916,32.3350389 4,31.8889094 4,30.9980789 L3.96118164,25.9984966 L2.93713499,25.9984966 C1.31513621,25.9984966 0,24.6565205 0,23.0046864 L0,10.9938102 C0,9.34021815 1.31338726,8 2.93713499,8 L5.8916405,8 L5.8916405,9.99983295 L2.93713499,9.99983295 C2.39892444,9.99983295 1.96388017,10.4437646 1.96388017,10.9938102 L1.96388017,23.0046864 C1.96388017,23.5529651 2.40066459,23.9986636 2.93713499,23.9986636 L4.90970041,23.9986636 C5.45201095,23.9986636 6,24.4463415 6,24.9985801 L6.00033071,28.473387 L10.1070044,24.2915324 C10.2911539,24.1040116 10.5409142,23.9986636 10.8013409,23.9986636 L20.629427,23.9986636 C21.0796109,23.9986636 21.4576154,23.6880706 21.5692215,23.2645797 L23,24.7733181 C22.4658395,25.5162166 21.6034751,25.9984966 20.629427,25.9984966 Z" id="Rectangle-735" opacity="0.5"></path>
                </g>
            </g>
        </g>
    </g>
</svg>